<svg xmlns="http://www.w3.org/2000/svg" width="100" height="100" viewBox="0 0 100 100">
  <circle cx="50" cy="50" r="45" fill="#1AC89C" />
  <path d="M30 30 H70 V35 H55 V70 H45 V35 H30 Z" fill="#0F4D3A" />
  <path d="M30 45 H45 V55 H30 Z" fill="#0F4D3A" />
  <path d="M55 45 H70 V55 H55 Z" fill="#0F4D3A" />
  <path d="M40 65 H60 V75 H40 Z" fill="#0F4D3A" />
  <path d="M32 33 H36 V38 H32 Z" fill="#1AC89C" />
  <path d="M42 33 H46 V38 H42 Z" fill="#1AC89C" />
  <path d="M59 33 H63 V38 H59 Z" fill="#1AC89C" />
  <path d="M65 33 H69 V38 H65 Z" fill="#1AC89C" />
  <path d="M32 48 H36 V52 H32 Z" fill="#1AC89C" />
  <path d="M38 48 H42 V52 H38 Z" fill="#1AC89C" />
  <path d="M58 48 H62 V52 H58 Z" fill="#1AC89C" />
  <path d="M65 48 H69 V52 H65 Z" fill="#1AC89C" />
  <path d="M45 68 H49 V72 H45 Z" fill="#1AC89C" />
  <path d="M52 68 H56 V72 H52 Z" fill="#1AC89C" />
</svg>
